<svg width="30" height="30" viewBox="0 0 30 30" fill="none" xmlns="http://www.w3.org/2000/svg">
<path d="M15 3.75C12.5255 3.75776 10.1353 4.65025 8.26125 6.26625C6.825 7.50375 5.78437 9.11625 5.51625 10.7344C2.37375 11.4281 0 14.1656 0 17.4712C0 21.3112 3.2025 24.375 7.08937 24.375H23.7881C27.1913 24.375 30 21.6937 30 18.3244C30 15.2569 27.6713 12.7575 24.6863 12.3356C24.2306 7.49813 20.0438 3.75 15 3.75ZM19.4138 16.6013L15.6638 20.3513C15.5767 20.4386 15.4732 20.5078 15.3593 20.5551C15.2454 20.6023 15.1233 20.6267 15 20.6267C14.8767 20.6267 14.7546 20.6023 14.6407 20.5551C14.5268 20.5078 14.4233 20.4386 14.3362 20.3513L10.5862 16.6013C10.4991 16.5141 10.4299 16.4106 10.3828 16.2967C10.3356 16.1828 10.3113 16.0608 10.3113 15.9375C10.3113 15.8142 10.3356 15.6922 10.3828 15.5783C10.4299 15.4644 10.4991 15.3609 10.5862 15.2737C10.7623 15.0977 11.001 14.9988 11.25 14.9988C11.3733 14.9988 11.4953 15.0231 11.6092 15.0703C11.7231 15.1174 11.8266 15.1866 11.9138 15.2737L14.0625 17.4244V10.3125C14.0625 10.0639 14.1613 9.8254 14.3371 9.64959C14.5129 9.47377 14.7514 9.375 15 9.375C15.2486 9.375 15.4871 9.47377 15.6629 9.64959C15.8387 9.8254 15.9375 10.0639 15.9375 10.3125V17.4244L18.0862 15.2737C18.2623 15.0977 18.501 14.9988 18.75 14.9988C18.999 14.9988 19.2377 15.0977 19.4138 15.2737C19.5898 15.4498 19.6887 15.6885 19.6887 15.9375C19.6887 16.1865 19.5898 16.4252 19.4138 16.6013Z" fill="#353535"/>
</svg>
