<svg width="241" height="209" viewBox="0 0 241 209" fill="none" xmlns="http://www.w3.org/2000/svg">
<path d="M64.08 129.52V142H11.76V58H24.72V129.52H64.08Z" fill="white"/>
<path d="M105 88.44C105 94.84 103.56 100.52 100.68 105.48C97.88 110.36 94.04 114.2 89.16 117C84.36 119.8 78.96 121.2 72.96 121.2C66.96 121.2 61.52 119.8 56.64 117C51.76 114.2 47.88 110.36 45 105.48C42.2 100.52 40.8 94.84 40.8 88.44C40.8 82.04 42.2 76.4 45 71.52C47.88 66.56 51.76 62.68 56.64 59.88C61.52 57.08 66.96 55.68 72.96 55.68C78.96 55.68 84.36 57.08 89.16 59.88C94.04 62.68 97.88 66.56 100.68 71.52C103.56 76.4 105 82.04 105 88.44ZM92.4 88.44C92.48 84.2 91.64 80.48 89.88 77.28C88.2 74 85.88 71.48 82.92 69.72C79.96 67.88 76.64 66.96 72.96 66.96C69.28 66.96 65.92 67.88 62.88 69.72C59.92 71.48 57.56 74 55.8 77.28C54.12 80.48 53.32 84.2 53.4 88.44C53.32 92.6 54.12 96.32 55.8 99.6C57.56 102.8 59.92 105.32 62.88 107.16C65.92 109 69.28 109.92 72.96 109.92C76.64 109.92 79.96 109 82.92 107.16C85.88 105.32 88.2 102.8 89.88 99.6C91.64 96.32 92.48 92.6 92.4 88.44Z" fill="white"/>
<path d="M135.2 94.28C140 94.28 144.44 94.96 148.52 96.32C152.6 97.68 156.2 99.44 159.32 101.6C162.44 103.76 164.88 106.08 166.64 108.56L158.24 117.32C155.04 114.28 151.52 111.8 147.68 109.88C143.84 107.88 139.68 106.88 135.2 106.88C129.52 106.88 124.36 108.2 119.72 110.84C115.16 113.48 111.56 117.08 108.92 121.64C106.28 126.12 104.96 131.24 104.96 137C104.96 142.68 106.36 147.84 109.16 152.48C111.96 157.12 115.68 160.8 120.32 163.52C125.04 166.24 130.16 167.6 135.68 167.6C139.68 167.6 143.44 166.84 146.96 165.32C150.48 163.72 153.32 161.56 155.48 158.84C157.72 156.12 158.84 153 158.84 149.48C158.84 149.08 158.84 148.84 158.84 148.76H134.96V135.92H172.16C172.32 137.12 172.44 138.32 172.52 139.52C172.68 140.72 172.76 141.92 172.76 143.12C172.76 147.52 172.08 151.84 170.72 156.08C169.44 160.32 167.4 164 164.6 167.12C161.4 171.12 157.24 174.32 152.12 176.72C147.08 179.04 141.48 180.2 135.32 180.2C129.24 180.2 123.56 179.12 118.28 176.96C113 174.72 108.36 171.64 104.36 167.72C100.36 163.8 97.24 159.24 95 154.04C92.84 148.76 91.76 143.08 91.76 137C91.76 130.92 92.84 125.32 95 120.2C97.24 115 100.32 110.48 104.24 106.64C108.24 102.72 112.88 99.68 118.16 97.52C123.44 95.36 129.12 94.28 135.2 94.28Z" fill="white"/>
<path d="M236 88.44C236 94.84 234.56 100.52 231.68 105.48C228.88 110.36 225.04 114.2 220.16 117C215.36 119.8 209.96 121.2 203.96 121.2C197.96 121.2 192.52 119.8 187.64 117C182.76 114.2 178.88 110.36 176 105.48C173.2 100.52 171.8 94.84 171.8 88.44C171.8 82.04 173.2 76.4 176 71.52C178.88 66.56 182.76 62.68 187.64 59.88C192.52 57.08 197.96 55.68 203.96 55.68C209.96 55.68 215.36 57.08 220.16 59.88C225.04 62.68 228.88 66.56 231.68 71.52C234.56 76.4 236 82.04 236 88.44ZM223.4 88.44C223.48 84.2 222.64 80.48 220.88 77.28C219.2 74 216.88 71.48 213.92 69.72C210.96 67.88 207.64 66.96 203.96 66.96C200.28 66.96 196.92 67.88 193.88 69.72C190.92 71.48 188.56 74 186.8 77.28C185.12 80.48 184.32 84.2 184.4 88.44C184.32 92.6 185.12 96.32 186.8 99.6C188.56 102.8 190.92 105.32 193.88 107.16C196.92 109 200.28 109.92 203.96 109.92C207.64 109.92 210.96 109 213.92 107.16C216.88 105.32 219.2 102.8 220.88 99.6C222.64 96.32 223.48 92.6 223.4 88.44Z" fill="white"/>
</svg>
